<?xml version="1.0" encoding="UTF-8" standalone="no"?>
<svg width="51px" height="50px" viewBox="0 0 51 50" version="1.1" xmlns="http://www.w3.org/2000/svg" xmlns:xlink="http://www.w3.org/1999/xlink">
    <!-- Generator: Sketch 39.1 (31720) - http://www.bohemiancoding.com/sketch -->
    <title>Slice 1</title>
    <desc>Created with Sketch.</desc>
    <defs></defs>
    <g id="Page-1" stroke="none" stroke-width="1" fill="none" fill-rule="evenodd">
        <g id="farlig_avfall" transform="translate(1.000000, 0.000000)">
            <path d="M24.812,49.623 C38.5144766,49.6224477 49.6221841,38.5141433 49.622,24.8116667 C49.6218159,11.1091901 38.5138099,0.00118411752 24.8113333,0.00100002239 C11.1088567,0.000815927264 0.000552285386,11.1085234 -2.75457435e-15,24.811 C-1.67816893e-15,38.5142892 11.1087108,49.623 24.812,49.623" id="Shape" fill="#ED1D24"></path>
            <path d="M22.51,15.306 C24.0759284,15.4246941 25.6507898,15.2988536 27.178,14.933 C27.645,14.843 26.819,13.159 26.151,13.159 C24.19,13.159 23.131,13.186 22.697,13.439 C22.7,13.439 21.772,15.253 22.51,15.306 L22.51,15.306 Z" id="Shape" fill="#FFFFFF"></path>
            <path d="M35.439,29.017 L35.439,28.031 C35.4860567,27.8550926 35.4860567,27.6699074 35.439,27.494 L35.439,27.494 L35.439,27.4 L35.412,27.4 L35.412,27.4 C35.3816747,27.3048856 35.3411032,27.2133483 35.291,27.127 C35.282,27.111 35.276,27.096 35.267,27.08 C35.1957403,26.9633139 35.110806,26.8555515 35.014,26.759 C34.209,25.954 32.306,25.425 30.114,25.373 L30.114,14.442 C29.8154066,13.0825177 29.0105964,11.8876374 27.863,11.1 C26.714,10.583 22.237,10.8 21.47,11.111 C20.9720347,11.3256208 20.5340135,11.6585993 20.194,12.081 C20.121,12.164 20.052,12.24 19.994,12.301 C19.5058714,12.7839682 18.9215331,13.1587624 18.279,13.401 C17.577426,12.8226736 16.6716813,12.552862 15.768,12.653 C13.71,12.653 12.978,13.342 12.978,13.987 C12.9785225,14.0655356 12.9899655,14.143617 13.012,14.219 L12.974,14.219 L12.974,15.275 C12.32963,15.4580692 11.7722444,15.8660854 11.403,16.425 L11.332,16.525 L11.312,16.642 C11.174,17.46 11.212,30.887 11.355,31.765 C11.6771668,32.6539294 12.3446209,33.3751116 13.206,33.765 C13.3720937,33.8645535 13.5326631,33.9730464 13.687,34.09 L13.794,34.178 L13.931,34.2 C16.985,34.679 20.993,34.06 24.077,33.376 L24.077,36.067 C24.0424596,36.1490038 24.0244485,36.2370199 24.024,36.326 C24.0475484,36.725135 24.2310521,37.0979108 24.533,37.36 C26.0207783,38.524498 27.8754382,39.1195495 29.763,39.038 C31.6612956,39.1369625 33.5283753,38.5251793 35,37.322 C35.2866672,37.0559088 35.4460354,36.6800473 35.438,36.289 C35.438,36.302 35.438,35.156 35.438,33.712 C36.638,34.156 37.557,34.276 37.938,33.834 C38.446,33.244 38.211,32.194 35.439,29.017 L35.439,29.017 Z M25.109,27.907 L25.087,27.8 C25.0819861,27.7781849 25.0752996,27.7567883 25.067,27.736 L25.067,27.727 C25.091279,27.6300828 25.1430163,27.5422334 25.216,27.474 L25.216,27.468 L25.216,27.468 L25.404,27.64 L25.945,27.02 C26.9481166,26.6253345 28.0132761,26.4116932 29.091,26.389 L29.091,27.537 C29.091,27.55 29.129,29.113 29.129,29.113 L29.129,29.137 C27.7434258,29.1905823 26.3754128,28.8125006 25.214,28.055 C25.1732504,28.0103728 25.1379988,27.9610206 25.109,27.908 L25.109,27.907 Z M30.109,27.523 L30.109,26.379 C32.28,26.433 33.796,26.966 34.3,27.47 C34.378067,27.5407185 34.4328162,27.6334783 34.457,27.736 L34.457,27.736 C34.4490394,27.7571575 34.442688,27.7788859 34.438,27.801 L34.424,27.868 C34.224,28.336 32.738,29.068 30.147,29.14 L30.147,29.092 C30.147,29.088 30.11,27.524 30.11,27.524 L30.109,27.523 Z M25.084,29.186 C26.2591492,29.7776558 27.5507334,30.1017471 28.866,30.135 L28.942,30.183 C28.7976931,30.7033936 28.4201945,31.1274331 27.92,31.331 C27.32,31.51 26.32,31.798 25.084,32.1 L25.084,29.187 L25.084,29.186 Z M34.43,29.192 L34.43,32.161 C33.33,31.616 32.037,30.897 30.761,30.126 C32.037088,30.0840414 33.2888807,29.7657197 34.43,29.193 L34.43,29.192 Z M15.724,33.341 L15.756,33.277 C15.4527342,33.078946 15.2722722,32.7391639 15.278,32.377 C15.103,28.724 15.262,18.659 15.264,18.557 L14.257,18.541 C14.257,18.641 14.095,28.741 14.271,32.425 C14.2863084,32.7104317 14.3565953,32.9902211 14.478,33.249 C14.387,33.237 14.29,33.231 14.199,33.219 C14.069,33.119 13.92,33.025 13.746,32.919 C13.1497022,32.6427085 12.6596434,32.1796801 12.35,31.6 C12.222,30.816 12.181,18.5 12.295,16.929 C12.4947487,16.6364363 12.7745824,16.4076394 13.101,16.27 L13.101,16.261 L13.117,16.277 C13.8600336,16.8806112 14.8080991,17.1727372 15.762,17.092 C16.7094181,17.1760524 17.6521634,16.8864462 18.389,16.285 L18.53,16.138 L18.53,14.378 C19.3394009,14.0929253 20.0756749,13.6322418 20.686,13.029 C20.776,12.943 20.857,12.852 20.944,12.755 C21.1810619,12.4484297 21.4902324,12.2052156 21.844,12.047 C22.396,11.832 26.594,11.639 27.444,12.021 C28.2245328,12.6453079 28.8011112,13.4882405 29.1,14.442 L29.1,25.377 L28.841,25.391 L28.761,25.391 C28.468,25.411 28.18,25.442 27.898,25.48 L27.798,25.493 C27.518,25.533 27.2463333,25.5816667 26.983,25.639 L26.897,25.658 C26.63,25.718 26.376,25.788 26.135,25.866 L26.087,25.882 L26.046,25.896 L23.646,23.696 L26.51,20.414 L25.4,19.408 L22.536,22.689 L19.636,20.035 L18.513,21.323 L21.413,23.977 L18.55,27.258 L19.658,28.274 L22.521,24.992 L24.481,26.792 C24.3103512,26.9623306 24.1825214,27.1706965 24.108,27.4 L24.108,27.4 L24.089,27.4 C24.0832214,27.430644 24.0808736,27.4618363 24.082,27.493 C24.0617244,27.5819171 24.051328,27.6728011 24.051,27.764 L24.051,27.764 C24.0520555,27.8416145 24.0604258,27.9189567 24.076,27.995 L24.076,32.336 C21.3427684,33.0068755 18.5383592,33.3443313 15.724,33.341 L15.724,33.341 Z M34.43,36.324 C34.4166136,36.4455333 34.3558986,36.556904 34.261,36.634 C32.9727668,37.6155616 31.3784891,38.1090791 29.761,38.027 C28.1404278,38.1019769 26.5439186,37.6132712 25.243,36.644 C25.1519857,36.5674231 25.0829624,36.4680295 25.043,36.356 C25.043,36.343 25.054,36.329 25.059,36.315 L25.083,36.238 L25.083,33.138 C26.444,32.811 27.55,32.495 28.183,32.304 L28.194,32.304 L28.252,32.287 C28.972128,32.02176 29.53976,31.454128 29.805,30.734 C31.2914109,31.6821292 32.8346492,32.5380738 34.426,33.297 L34.426,36.327 L34.43,36.324 Z M35.439,32.635 L35.439,30.576 C36.1670554,31.3129932 36.7414996,32.1872362 37.129,33.148 C36.5376079,33.0888202 35.9634988,32.9145493 35.439,32.635 L35.439,32.635 Z" id="Shape" fill="#FFFFFF"></path>
        </g>
    </g>
</svg>