<?xml version="1.0" encoding="UTF-8" standalone="no"?>
<svg width="51px" height="50px" viewBox="0 0 51 50" version="1.1" xmlns="http://www.w3.org/2000/svg" xmlns:xlink="http://www.w3.org/1999/xlink">
    <!-- Generator: Sketch 39.1 (31720) - http://www.bohemiancoding.com/sketch -->
    <title>Slice 1</title>
    <desc>Created with Sketch.</desc>
    <defs></defs>
    <g id="Page-1" stroke="none" stroke-width="1" fill="none" fill-rule="evenodd">
        <g id="glas_metal" transform="translate(1.000000, 0.000000)">
            <path d="M24.812,49.623 C38.5144766,49.6224477 49.6221841,38.5141433 49.622,24.8116667 C49.6218159,11.1091901 38.5138099,0.00118411752 24.8113333,0.00100002239 C11.1088567,0.000815927264 0.000552285386,11.1085234 -2.75457435e-15,24.811 C-1.67816893e-15,38.5142892 11.1087108,49.623 24.812,49.623" id="Shape" fill="#465B65"></path>
            <path d="M31.974,25.323 L31.974,20.041 C31.992,18.813 28.374,18.19 28.374,15.655 L28.374,10.239 C27.4926119,10.541782 26.5353881,10.541782 25.654,10.239 L25.654,15.653 C25.649,18.188 22.033,18.811 22.054,20.039 L22.054,36.281 L22.054,36.341 C22.054,38.552 24.278,40.341 27.02,40.341 C27.6060923,40.34236 28.1892431,40.2581384 28.751,40.091 L29.74,40.678 C28.8815715,41.0497629 27.9554641,41.2397511 27.02,41.236 C23.782,41.236 21.156,39.044 21.156,36.336 L21.156,19.9 C21.168,18.191 24.706,17.48 24.713,15.727 L24.713,9.68 C24.4317167,9.43322961 24.2651895,9.08098845 24.253,8.707 C24.253,7.735 25.491,6.947 27.019,6.947 C28.547,6.947 29.785,7.735 29.785,8.707 C29.7727861,9.07840797 29.6077908,9.42829944 29.329,9.674 L29.329,15.726 C29.335,17.479 32.873,18.19 32.885,19.899 L32.885,25.322 L31.985,25.322 L31.974,25.323 Z M27.008,9.629 C28.026,9.629 28.852,9.216 28.852,8.707 C28.852,8.198 28.026,7.786 27.008,7.786 C25.99,7.786 25.164,8.198 25.164,8.707 C25.164,9.216 25.99,9.629 27.008,9.629 L27.008,9.629 Z" id="Shape" fill="#FFFFFF"></path>
            <path d="M33.686,31.283 L34.37,31.283 C34.245,31.288 34.119,31.292 33.993,31.292 C33.893,31.292 33.793,31.292 33.687,31.287" id="Shape" fill="#FFFFFF"></path>
            <path d="M37.45,35.272 L37.45,31.357 C34.8843849,32.7224903 31.8114132,32.7393152 29.231,31.402 L29.231,39.72 C29.7535954,40.2474977 30.3563859,40.688959 31.017,41.028 C31.2284867,41.1342726 31.4466059,41.2267979 31.67,41.305 C32.724455,41.6791838 33.875545,41.6791838 34.93,41.305 C35.1534487,41.2269391 35.3715769,41.13441 35.583,41.028 C36.2773136,40.6714448 36.9078323,40.2024416 37.449,39.64 L37.449,35.272 L38.516,35.213 L38.516,40.1 C38.1126365,40.5435617 37.6679641,40.947718 37.188,41.307 C34.9180927,43.1344181 31.6819073,43.1344181 29.412,41.307 C28.9930203,40.9943638 28.6012856,40.6467871 28.241,40.268 L28.241,29.516 C28.5247903,29.8392601 28.8587204,30.1147778 29.23,30.332 C30.3599343,31.0313438 31.6652216,31.3954649 32.994,31.382 L33.678,31.382 C35.0146482,31.3857528 36.3239999,31.0038151 37.449,30.282 C37.8643305,30.0248512 38.2265301,29.6904871 38.516,29.297 L38.516,35.219 L37.45,35.272 Z" id="Shape" fill="#FFFFFF"></path>
            <path d="M33.3,30.158 C30.43,30.158 28.1,28.958 28.1,27.476 C28.1,25.994 30.426,24.794 33.3,24.794 C36.174,24.794 38.5,25.994 38.5,27.476 C38.5,28.958 36.174,30.158 33.3,30.158 M33.3,29.152 C35.522,29.152 37.324,28.402 37.324,27.476 C37.324,26.55 35.522,25.8 33.3,25.8 C31.078,25.8 29.276,26.55 29.276,27.476 C29.276,28.402 31.076,29.152 33.3,29.152" id="Shape" fill="#FFFFFF"></path>
            <path d="M15.436,19.039 C15.748339,19.3011496 15.960335,19.6633094 16.036,20.064 C16.3374219,19.8894695 16.6228614,19.6886915 16.889,19.464 C17.0534397,19.8792158 17.2542193,20.2791019 17.489,20.659 C17.774,20.547 18.057,20.432 18.342,20.317 C18.3441865,20.7926423 18.5077797,21.2534531 18.806,21.624 C19.006,21.739 19.206,21.851 19.406,21.962 C19.490638,22.1100928 19.5299298,22.2797778 19.519,22.45 C19.6433506,22.9842899 20.0119766,23.4288638 20.514,23.65 C20.503,23.874 20.482,24.529 20.468,24.512 C20.6841987,24.8046696 20.9474364,25.0594594 21.247,25.266 C21.247,25.325 20.859,25.795 20.821,25.899 C20.762,26.055 21.048,26.655 20.994,26.715 C20.874,26.846 20.722,26.872 20.626,27.003 C20.5365384,27.3298787 20.5448826,27.6758146 20.65,27.998 C20.2624034,27.7713301 19.8435939,27.6028629 19.407,27.498 C19.407,27.98 19.884,28.319 19.92,28.852 C19.909,29.565 19.896,30.274 19.882,30.984 L19.882,36.531 C19.869,37.342 20.001,38.587 19.563,39.184 C18.6453463,40.260445 17.2843897,40.85614 15.871,40.8 C14.2102956,40.8874236 12.6079514,40.1752706 11.56,38.884 C11.3582514,38.1470269 11.2835159,37.3810718 11.339,36.619 L11.339,32.519 C11.339,31.319 11.101,28.667 11.648,27.861 C12.4511928,26.953249 13.6283143,26.4669023 14.838,26.543 C15.436983,26.5633732 16.0366305,26.5349459 16.631,26.458 C16.626,26.413 16.62,26.365 16.615,26.317 C16.2176683,25.9886401 15.7920012,25.6961612 15.343,25.443 C15.271,25.155 15.383,24.552 15.312,24.264 C14.9802231,24.0501534 14.6370485,23.8545305 14.284,23.678 C14.4192918,23.3723782 14.5137698,23.0502788 14.565,22.72 C14.334957,22.3765323 14.0533125,22.0706023 13.73,21.813 C13.901,21.813 14.072,21.595 14.242,21.595 C14.242,21.568 13.73,20.432 13.73,20.314 L14.584,20.57 C14.4713333,20.1433333 14.3573333,19.7166667 14.242,19.29 L14.242,19.21 C14.5923486,19.3813092 14.910115,19.6124428 15.181,19.893 C15.2663333,19.609 15.3516667,19.3243333 15.437,19.039 M12.278,30.305 C12.1871824,31.15755 12.2256156,32.018926 12.392,32.86 C13.251,34.305 17.82,34.439 18.792,32.991 C19.0903081,32.1493422 19.1792016,31.2477081 19.051,30.364 C18.1763791,30.9190871 17.162886,31.2161334 16.127,31.221 C14.7804555,31.3292177 13.4341989,31.0085804 12.281,30.305 M12.269,33.844 C11.895,34.933 13.94,35.89 15.722,35.886 C17.57,35.886 19.41,34.954 18.975,34.021 C18.0756141,34.7312974 16.9401253,35.0736954 15.798,34.979 C14.5357413,34.9553727 13.3083757,34.5606264 12.269,33.844 M12.24,35.508 C12.24,36.391 11.978,38.17 12.603,38.678 C14.812,40.478 17.913,39.845 18.655,38.827 C19.122,38.188 19.048,36.576 19.048,35.71 C18.0956176,36.4781617 16.8915264,36.8645545 15.67,36.794 C13.023,36.719 12.619,35.811 12.241,35.508 M19,28.7 C19,27.878 17.493,27.212 15.634,27.212 C13.775,27.212 12.268,27.878 12.268,28.7 C12.268,29.522 13.775,30.187 15.634,30.187 C17.493,30.187 19,29.522 19,28.7 M18.991,26.642 C19.753,26.196 19.656,24.608 18.773,23.095 C17.89,21.582 16.555,20.717 15.792,21.162 C15.029,21.607 15.126,23.195 16.01,24.709 C16.894,26.223 18.228,27.087 18.991,26.642" id="Shape" fill="#FFFFFF"></path>
            <path d="M33,31.38 L33.684,31.38 C33.559,31.385 33.433,31.389 33.307,31.389 C33.207,31.389 33.107,31.389 33.001,31.383" id="Shape" fill="#FFFFFF"></path>
            <path d="M27.017,40.343 C24.275,40.343 22.051,38.551 22.051,36.343 L22.051,36.283 L22.051,22.2 L21.151,21.575 L21.151,36.34 C21.151,39.045 23.776,41.24 27.014,41.24 C27.9497806,41.243687 28.8762015,41.0537043 29.735,40.682 L28.746,40.095 C28.1839035,40.2621508 27.6004213,40.3463716 27.014,40.345" id="Shape" fill="#FFFFFF"></path>
            <path d="M31.913,29.045 C30.379,28.809 29.283,28.196 29.283,27.474 C29.2847002,27.3966537 29.2985354,27.3200541 29.324,27.247 L28.394,26.6 C28.2135548,26.8561241 28.1145758,27.1607284 28.11,27.474 C28.11,28.956 30.437,30.156 33.31,30.156 L33.51,30.156 L31.913,29.045 Z" id="Shape" fill="#FFFFFF"></path>
            <path d="M37.456,32.9 L37.456,39.64 C36.9145165,40.2020829 36.2840609,40.6710392 35.59,41.028 C35.3783399,41.1338975 35.1602449,41.2264125 34.937,41.305 C33.8823635,41.6781279 32.7316365,41.6781279 31.677,41.305 C31.4538003,41.226296 31.2357125,41.133784 31.024,41.028 C30.3629432,40.6891924 29.7597882,40.2477112 29.237,39.72 L29.237,31.4 C30.489753,32.0646869 31.8889054,32.405365 33.307,32.391 C34.2547658,32.3941071 35.1969523,32.2459094 36.098,31.952 L35.049,31.223 C34.5983463,31.3049902 34.1426194,31.3561092 33.685,31.376 L33.001,31.376 C31.6722361,31.389355 30.3669788,31.0252423 29.237,30.326 C28.865882,30.1085587 28.5322645,29.8326827 28.249,29.509 L28.249,40.266 C28.6093558,40.6443418 29.0007195,40.9918862 29.419,41.305 C31.6889073,43.1324181 34.9250927,43.1324181 37.195,41.305 C37.6745065,40.9462768 38.1188373,40.5427964 38.522,40.1 L38.522,33.64 L37.456,32.9 Z" id="Shape" fill="#FFFFFF"></path>
        </g>
    </g>
</svg>