<?xml version="1.0" encoding="UTF-8" standalone="no"?>
<svg width="51px" height="51px" viewBox="0 0 51 51" version="1.1" xmlns="http://www.w3.org/2000/svg" xmlns:xlink="http://www.w3.org/1999/xlink">
    <!-- Generator: Sketch 40.3 (33839) - http://www.bohemiancoding.com/sketch -->
    <title>papir</title>
    <desc>Created with Sketch.</desc>
    <defs></defs>
    <g id="Page-1" stroke="none" stroke-width="1" fill="none" fill-rule="evenodd">
        <g id="papir">
            <path d="M25.1713289,50.4882609 C38.9783068,50.4882609 50.1708696,39.2952388 50.1708696,25.4882609 C50.1708696,11.681283 38.9783068,0.48826087 25.1713289,0.48826087 C11.3638917,0.48826087 0.170869565,11.681283 0.170869565,25.4882609 C0.170869565,39.2952388 11.3638917,50.4882609 25.1713289,50.4882609" id="Fill-4" fill="#1D5D9C"></path>
            <path d="M35.9373913,32.2847826 C36.0552174,32.9895652 36.2108696,33.796087 36.3178261,34.3352174 C35.6973913,34.313913 34.693913,34.2313043 33.81,33.9369565 C31.4856522,33.1621739 28.3408696,33.6352174 26.6434783,34.5404348 C26.2791304,34.7347826 25.2708696,35.3234783 24.586087,35.7252174 C24.4991304,34.9308696 24.2682609,33.8321739 23.153913,33.1326087 C21.8208696,32.2952174 20.6291304,32.0404348 20.4973913,32.013913 C19.7704348,31.8686957 18.3230435,31.9852174 16.3108696,32.3513043 C15.6173913,32.4769565 14.5913043,32.6291304 13.8756522,32.7313043 C14.2347826,31.7265217 14.7769565,30.1578261 14.8308696,29.6934783 L14.8647826,29.4182609 C14.9626087,28.6513043 15.1443478,27.223913 14.9556522,26.323913 C14.8856522,25.99 14.8082609,25.6891304 14.7265217,25.3708696 C14.5734783,24.7782609 14.4156522,24.166087 14.2817391,23.2404348 C14.0991304,21.98 13.6786957,21.1469565 13.3078261,20.4121739 C13.2256522,20.2486957 13.1478261,20.0947826 13.0752174,19.9413043 C13.003913,19.79 12.9243478,19.5230435 12.8395652,19.2404348 C12.6773913,18.6973913 12.4752174,18.0217391 12.1317391,17.4134783 C11.9165217,17.0330435 11.5008696,16.4052174 11.1804348,15.9321739 L13.5804348,15.4417391 C15.4030435,15.06 16.0573913,15.5582609 16.8147826,16.1352174 C17.22,16.443913 17.6791304,16.793913 18.3152174,16.9965217 C19.2956522,17.3095652 20.266087,17.4582609 21.1221739,17.5895652 C23.446087,17.946087 24.5778261,18.2182609 24.7134783,20.2773913 C24.4969565,21.0995652 23.0826087,26.9969565 25.3413043,33.0195652 L26.2786957,32.6678261 C24.2395652,27.2295652 25.3904348,21.7413043 25.6526087,20.6578261 C26.2208696,20.3704348 26.8082609,19.8534783 27.4269565,19.2947826 C28.383913,18.4291304 29.4686957,17.4478261 30.443913,17.4478261 C33.2208696,17.4478261 34.5378261,17.4082609 36.0582609,16.84 C36.0417391,16.9243478 36.0269565,17.0113043 36.0113043,17.0943478 C35.8473913,17.9526087 35.6778261,18.84 35.6178261,19.7473913 C35.59,20.1691304 35.6613043,20.5926087 35.7356522,21.0408696 C35.8091304,21.4795652 35.8856522,21.9334783 35.8573913,22.3721739 C35.8234783,22.903913 35.9169565,23.6395652 36.0073913,24.3504348 C36.0843478,24.9526087 36.163913,25.5752174 36.1365217,25.8995652 C36.0956522,26.3856522 36.183913,26.7821739 36.2552174,27.1008696 C36.3078261,27.3378261 36.3491304,27.5247826 36.3278261,27.6778261 L36.0069565,29.8504348 C35.873913,30.7830435 35.8465217,31.7386957 35.9373913,32.2847826 L35.9373913,32.2847826 Z M37.4208696,34.7382609 C37.4182609,34.723913 37.1178261,33.2726087 36.926087,32.12 C36.866087,31.7608696 36.8630435,30.9417391 36.9991304,29.9917391 L37.1682609,28.8456522 L37.32,27.816087 C37.366087,27.4834783 37.2982609,27.1786957 37.2326087,26.8834783 C37.1708696,26.6052174 37.1069565,26.3173913 37.1347826,25.983913 C37.1708696,25.553913 37.0886957,24.9078261 37.0017391,24.223913 C36.9165217,23.5591304 36.8295652,22.8726087 36.8569565,22.436087 C36.8930435,21.8821739 36.8026087,21.3473913 36.7243478,20.8756522 C36.6582609,20.4865217 36.5973913,20.1186957 36.6178261,19.813913 C36.673913,18.9678261 36.83,18.1486957 36.9956522,17.2821739 C37.0686957,16.8995652 37.1443478,16.5034783 37.2113043,16.1030435 L37.3682609,15.1573913 L36.5021739,15.5678261 C34.7321739,16.406087 33.6373913,16.446087 30.443913,16.446087 C29.0830435,16.446087 27.846087,17.5647826 26.7547826,18.5513043 C26.3530435,18.9147826 25.97,19.253913 25.6213043,19.5069565 C25.1604348,17.2034783 23.27,16.9056522 21.2743478,16.5995652 C20.4143478,16.4673913 19.5252174,16.3308696 18.62,16.0421739 C18.1486957,15.8917391 17.7956522,15.6230435 17.4217391,15.3382609 C16.5891304,14.7043478 15.6456522,13.9856522 13.3752174,14.4608696 L10.2421739,15.1017391 L9.49695652,15.2543478 C9.49565217,15.2543478 9.93,15.8786957 9.93,15.8786957 C9.93956522,15.8930435 10.9134783,17.293913 11.2595652,17.9065217 C11.5478261,18.4165217 11.7317391,19.0321739 11.8795652,19.5273913 C11.9795652,19.8608696 12.0656522,20.1491304 12.1691304,20.3686957 C12.2473913,20.5343478 12.3278261,20.6943478 12.4134783,20.8634783 C12.766087,21.5626087 13.1313043,22.2856522 13.2904348,23.3843478 C13.4321739,24.3634783 13.6043478,25.0313043 13.756087,25.6208696 C13.8352174,25.9278261 13.91,26.2178261 13.9752174,26.5295652 C14.1291304,27.2643478 13.9547826,28.6334783 13.8708696,29.2917391 L13.8356522,29.5782609 C13.79,29.9734783 13.0847826,31.9913043 12.6513043,33.17 L12.363913,33.9513043 L13.1886957,33.8395652 C13.2747826,33.8278261 15.3165217,33.5504348 16.49,33.3365217 C19.096087,32.8630435 20.0230435,32.9408696 20.3008696,32.9965217 C20.346087,33.0056522 21.4191304,33.226087 22.6208696,33.9808696 C22.6217391,33.9813043 22.6221739,33.9821739 22.6230435,33.9826087 C21.5043478,33.5143478 20.6652174,33.583913 20.1369565,33.6278261 C19.6604348,33.6673913 19.1169565,33.9226087 18.4878261,34.2178261 C17.7921739,34.5443478 17.003913,34.9147826 16.1717391,35.0591304 C14.4956522,35.3508696 12.046087,35.5178261 10.8652174,35.586087 L11.5026087,33.26 L11.4930435,33.1669565 C11.4917391,33.1521739 11.3413043,31.64 11.3934783,30.7156522 C11.4156522,30.3234783 11.57,29.7495652 11.7195652,29.1943478 C11.9243478,28.4321739 12.1178261,27.7117391 12.0491304,27.2152174 C12.003913,26.8891304 11.9378261,26.6304348 11.873913,26.3804348 C11.783913,26.0295652 11.6913043,25.6669565 11.6291304,25.036087 C11.5530435,24.2652174 11.4243478,23.84 11.3208696,23.4982609 C11.2673913,23.3208696 11.2213043,23.1678261 11.1913043,22.993913 C11.1165217,22.5552174 10.8434783,22.1008696 10.5795652,21.6613043 C10.4378261,21.4252174 10.303913,21.2026087 10.233913,21.0330435 C10.0604348,20.6130435 9.70043478,20.0213043 9.42043478,19.5856522 L10.2,19.3517391 L9.91217391,18.3921739 L8.48652174,18.82 L7.82652174,19.0178261 L8.21826087,19.5843478 C8.44869565,19.9182609 9.09434783,20.8978261 9.30782609,21.4156522 C9.40652174,21.6543478 9.55913043,21.9082609 9.72086957,22.1773913 C9.92695652,22.5204348 10.1608696,22.9095652 10.203913,23.1617391 C10.243913,23.3978261 10.3013043,23.5873913 10.3621739,23.7882609 C10.4578261,24.103913 10.5656522,24.4613043 10.6321739,25.1343478 C10.7017391,25.8413043 10.8086957,26.2595652 10.9034783,26.6291304 C10.9656522,26.8721739 11.0195652,27.0826087 11.0565217,27.3521739 C11.0973913,27.6478261 10.913913,28.3313043 10.7517391,28.9343478 C10.5891304,29.5386957 10.4217391,30.1634783 10.3934783,30.6591304 C10.343913,31.5343478 10.453913,32.8165217 10.4873913,33.1734783 L9.53391304,36.653913 L10.2208696,36.6234783 C10.3743478,36.6165217 14.0117391,36.4517391 16.3434783,36.046087 C17.3078261,35.8786957 18.1982609,35.4608696 18.9134783,35.1247826 C19.4326087,34.8813043 19.9230435,34.6508696 20.22,34.626087 C20.7782609,34.58 21.5421739,34.516087 22.6530435,35.1043478 C23.453913,35.5282609 23.6321739,35.9673913 23.6704348,36.5817391 L23.6708696,36.5817391 C23.6734783,36.5995652 23.6743478,36.6213043 23.6773913,36.6382609 L23.8034783,37.3495652 L24.4252174,36.9821739 C24.4469565,36.9695652 26.5769565,35.7117391 27.1152174,35.4247826 C28.5930435,34.6365217 31.4517391,34.2069565 33.4930435,34.8873913 C35.0591304,35.4091304 36.8743478,35.3434783 36.9508696,35.3404348 L37.5413043,35.3169565 L37.4208696,34.7382609 L37.4208696,34.7382609 Z" id="Fill-5" fill="#FFFFFF"></path>
            <path d="M41.3482609,36.2152174 C40.3778261,34.6513043 39.5995652,32.5247826 39.6447826,32.0686957 L39.6469565,32.0434783 L39.6469565,32.0182609 C39.6469565,32.01 39.646087,31.1582609 39.7765217,30.3982609 C39.8821739,29.7873913 39.8573913,29.3886957 39.8234783,28.8365217 C39.8078261,28.5773913 39.7895652,28.2843478 39.7791304,27.9026087 C39.7604348,27.1991304 39.79,26.6152174 39.8130435,26.1456522 C39.8295652,25.8108696 39.8443478,25.5217391 39.8373913,25.2721739 C39.8226087,24.7152174 39.7947826,23.6808696 39.8556522,23.0617391 C39.9552174,22.0426087 40.0356522,21.3469565 40.0869565,21.0491304 C40.1578261,20.6365217 40.6156522,17.1604348 40.6352174,17.0126087 L40.7304348,16.29 L40.0217391,16.46 L38.2391304,16.8878261 L38.4730435,17.8621739 L39.5465217,17.6043478 C39.3752174,18.8956522 39.1443478,20.6173913 39.0995652,20.8791304 C39.0434783,21.2047826 38.9621739,21.906087 38.8586957,22.963913 C38.7921739,23.6456522 38.8204348,24.72 38.8356522,25.2973913 C38.8417391,25.51 38.8278261,25.7813043 38.8121739,26.0956522 C38.7882609,26.5821739 38.7578261,27.1878261 38.7773913,27.9291304 C38.7882609,28.3282609 38.8078261,28.6443478 38.8234783,28.8982609 C38.8565217,29.436087 38.8747826,29.7321739 38.7895652,30.2282609 C38.6434783,31.0765217 38.6452174,31.9834783 38.6452174,32.0217391 L38.6473913,31.9708696 C38.5726087,32.733913 39.336087,34.6730435 40.1482609,36.1452174 C39.5617391,36.2826087 38.7221739,36.4821739 38.1956522,36.6182609 C35.3221739,37.3613043 32.6186957,36.0443478 32.5921739,36.0313043 L32.5604348,36.0152174 C32.56,36.0152174 32.5269565,36.0043478 32.5269565,36.0043478 C31.19,35.5586957 30.076087,35.9882609 29.1808696,36.3330435 C28.2386957,36.6965217 27.8778261,36.7904348 27.5286957,36.4204348 L26.8008696,37.1086957 C27.6421739,38 28.6508696,37.6108696 29.5408696,37.2678261 C30.3591304,36.9526087 31.206087,36.6286957 32.1947826,36.9517391 C32.6030435,37.146087 35.3843478,38.38 38.446087,37.5882609 C39.2882609,37.3704348 41.0182609,36.9717391 41.0352174,36.9673913 L41.7178261,36.8104348 L41.3482609,36.2152174" id="Fill-6" fill="#FFFFFF"></path>
            <path d="M30.92,20.5873913 C32.1086957,20.6617391 33.8873913,20.1682609 33.9630435,20.1469565 L33.7678261,19.4504348 C33.7504348,19.4552174 32.0304348,19.9317391 30.9656522,19.8652174 C30.0221739,19.8065217 28.393913,20.8656522 27.5434783,21.4730435 L27.4621739,22.4334783 C28.4143478,21.693913 30.1904348,20.5417391 30.92,20.5873913" id="Fill-7" fill="#FFFFFF"></path>
            <path d="M33.7678261,19.4504348 L33.7682609,19.4504348 M27.4830435,24.8913043 L27.4826087,24.8913043" id="Stroke-8" stroke-linecap="round" stroke-linejoin="round"></path>
            <path d="M27.4830435,24.8913043 C27.5043478,24.8791304 29.6526087,23.6930435 30.72,23.5056522 C31.8026087,23.3152174 33.7769565,23.2973913 33.7969565,23.2969565 L33.7913043,22.5734783 C33.7078261,22.573913 31.7369565,22.5921739 30.5952174,22.7930435 C29.6065217,22.9665217 27.9421739,23.8243478 27.3547826,24.1382609 L27.3904348,24.7247826 L27.4830435,24.8913043" id="Fill-9" fill="#FFFFFF"></path>
            <path d="M27.5643478,27.8078261 C28.2321739,27.4073913 30.1491304,26.38 30.9913043,26.4326087 C32.13,26.5043478 33.7952174,26.5047826 33.8656522,26.5047826 L33.8656522,25.7813043 C33.8486957,25.7813043 32.1526087,25.7804348 31.0365217,25.7108696 C29.9817391,25.6447826 28.0726087,26.6795652 27.4078261,27.0613043 L27.4869565,27.6786957 L27.5643478,27.8078261" id="Fill-10" fill="#FFFFFF"></path>
            <path d="M31.2052174,29.7117391 C32.3278261,29.7817391 33.8882609,29.9234783 33.903913,29.9252174 L33.9695652,29.2043478 C33.953913,29.2030435 32.3826087,29.0604348 31.2504348,28.99 C30.3126087,28.9313043 28.6382609,29.563913 27.8252174,29.8982609 L27.9691304,30.6217391 C28.82,30.2669565 30.446087,29.6647826 31.2052174,29.7117391" id="Fill-11" fill="#FFFFFF"></path>
            <path d="M22.066087,20.7473913 L22.2291304,20.0086957 C21.5921739,19.6591304 20.1343478,18.9334783 18.5221739,18.6473913 C17.4008696,18.4478261 15.5995652,18.2191304 15.5817391,18.2165217 L15.4904348,18.9343478 C15.5086957,18.9365217 17.2921739,19.1634783 18.3956522,19.3595652 C20.0826087,19.6595652 21.6382609,20.5021739 22.066087,20.7473913" id="Fill-12" fill="#FFFFFF"></path>
            <path d="M22.2169565,24.2073913 L22.3578261,23.4447826 C21.7913043,23.1021739 20.5256522,22.3852174 19.5995652,22.2226087 C18.4708696,22.023913 16.3204348,21.8447826 16.2295652,21.8373913 L16.17,22.5582609 C16.1921739,22.5604348 18.3782609,22.7426087 19.4743478,22.9352174 C20.453913,23.1069565 21.9873913,24.0621739 22.2169565,24.2073913" id="Fill-13" fill="#FFFFFF"></path>
            <path d="M16.8321739,25.7608696 C17.3343478,25.8678261 18.6017391,26.1234783 19.5313043,26.1834783 C20.9034783,26.2717391 21.8030435,26.8686957 22.286087,27.1891304 C22.3530435,27.233913 22.4108696,27.2721739 22.463913,27.3052174 L22.5243478,27.2086957 L22.3926087,26.4004348 C21.8278261,26.0447826 20.9017391,25.5465217 19.5782609,25.4613043 C18.5334783,25.393913 16.9634783,25.05 16.7965217,25.0130435 C16.7878261,25.0108696 16.766087,25.006087 16.7652174,25.006087 C16.7652174,25.006087 16.71,25.7347826 16.8321739,25.7608696" id="Fill-14" fill="#FFFFFF"></path>
            <path d="M22.6134783,29.7326087 L22.6495652,29.7243478 C22.0230435,29.3452174 20.8482609,28.8926087 18.87,29.0073913 C18.0391304,29.056087 17.3195652,29.0613043 17.003913,29.0613043 C16.8969565,29.0613043 16.8356522,29.0604348 16.8330435,29.0604348 L16.8230435,29.783913 C16.8278261,29.783913 16.8478261,29.783913 16.88,29.7843478 C17.0982609,29.786087 17.9169565,29.7878261 18.9121739,29.73 C21.7204348,29.5669565 22.6713043,30.6408696 22.6808696,30.6513043 L22.806087,30.5486957 L22.6134783,29.7326087" id="Fill-15" fill="#FFFFFF"></path>
        </g>
    </g>
</svg>