<?xml version="1.0" encoding="UTF-8" standalone="no"?>
<svg width="51px" height="50px" viewBox="0 0 51 50" version="1.1" xmlns="http://www.w3.org/2000/svg" xmlns:xlink="http://www.w3.org/1999/xlink">
    <!-- Generator: Sketch 39.1 (31720) - http://www.bohemiancoding.com/sketch -->
    <title>Slice 1</title>
    <desc>Created with Sketch.</desc>
    <defs></defs>
    <g id="Page-1" stroke="none" stroke-width="1" fill="none" fill-rule="evenodd">
        <g id="plastemballasje" transform="translate(1.000000, 0.000000)">
            <path d="M24.812,49.623 C38.5144766,49.6224477 49.6221841,38.5141433 49.622,24.8116667 C49.6218159,11.1091901 38.5138099,0.00118411752 24.8113333,0.00100002239 C11.1088567,0.000815927264 0.000552285386,11.1085234 -2.75457435e-15,24.811 C-1.67816893e-15,38.5142892 11.1087108,49.623 24.812,49.623" id="Shape" fill="#7D2A90"></path>
            <path d="M15.164,12.275 L15.588,16.243 C17.398,17.475 18.207,19.631 18.862,21.596 C19.324,24.137 18.592,26.949 18.939,29.683 C19.7657899,31.7826584 19.8872319,34.094267 19.285,36.269 C17.9002322,37.5586219 15.9796656,38.1034213 14.124,37.733 C12.3266137,37.1686839 10.7069195,36.1465535 9.424,34.767 C9.077,30.338 9.232,25.639 9.269,21.172 C9.62602489,19.4165609 10.362182,17.7602926 11.426,16.319 L11.85,12.16 C12.62,11.351 13.968,11.66 14.969,11.89 L15.164,12.275 Z M14.432,12.699 C13.8181366,12.5060613 13.1598634,12.5060613 12.546,12.699 L12.276,15.899 C13.0790758,16.1943619 13.9562693,16.2213794 14.776,15.976 L14.432,12.699 Z M15.126,16.858 C14.1101875,17.1532342 13.0351394,17.1797658 12.006,16.935 C8.539,21.4 10.465,27.874 10.041,33.5 C10.003,34.463 10.85,34.964 11.505,35.5 C13.238,36.655 15.819,37.772 17.821,36.424 C19.208,35.73 18.592,33.882 18.861,32.534 C17.9056424,29.5614146 17.733425,26.3926144 18.361,23.334 C17.899,20.908 17.322,18.365 15.126,16.863 L15.126,16.858 Z M16.011,31.228 C15.7968441,31.4802314 15.4201295,31.5144782 15.164,31.305 C13.392,29.264 13.585,25.798 14.701,23.525 C15.356,22.986 16.011,23.949 16.165,24.565 C16.512,26.606 17.013,29.302 16.011,31.227 L16.011,31.228 Z M15.318,24.488 L15.164,24.411 C14.548,26.183 14.355,28.763 15.472,30.381 C15.8836498,28.4321191 15.8308946,26.413716 15.318,24.489 L15.318,24.488 Z" id="Shape" fill="#FFFFFF"></path>
            <path d="M39.12,14.163 L39.39,14.509 C39.275,16.396 39.968,18.36 39.313,20.055 C38.813,23.213 40.738,25.485 40.622,28.374 C39.852,30.607 41.085,33.38 39.891,35.46 L38.774,36.153 C36.194,36.577 33.844,37.501 31.264,37.886 L29.764,37.54 L23.448,33.38 C22.677,32.533 23.178,31.262 23.255,30.261 C22.562,28.142 21.907,26.061 22.408,23.675 C22.061,21.981 21.176,20.401 21.522,18.591 C21.022,16.935 21.83,15.356 21.368,13.622 L21.868,13.122 L26.99,11.543 L35.155,12.082 L39.12,14.163 Z M26.834,12.506 L22.405,13.892 L23.714,16.665 C25.679,16.896 27.95,16.434 29.761,17.089 C31.7612197,16.6759967 33.8078319,16.5333897 35.846,16.665 L38.619,15.125 L38.619,14.933 L34.729,12.853 C32.11,12.93 29.568,12.429 26.829,12.506 L26.834,12.506 Z M32.953,15.626 C31.913,16.782 30.719,15.472 29.486,15.703 C28.793,15.78 27.945,16.165 27.406,15.626 C27.0732713,15.2702018 27.0108554,14.7392611 27.252,14.316 C28.523,13.045 30.834,13.469 32.375,13.97 L32.953,14.586 C33.0295696,14.9284386 33.0295696,15.2835614 32.953,15.626 L32.953,15.626 Z M32.259,14.663 C31.0498518,14.0702948 29.6639648,13.9466694 28.369,14.316 C28.17497,14.3158194 27.9947244,14.4162671 27.8928063,14.5813743 C27.7908883,14.7464815 27.7818773,14.9526296 27.869,15.126 C29.3487336,14.9882928 30.8406207,15.066104 32.298,15.357 C32.344267,15.1265124 32.331191,14.8880469 32.26,14.664 L32.259,14.663 Z M22.328,15.9 C22.367,16.824 21.944,17.633 22.328,18.519 C22.2731436,20.0032371 22.563422,21.47996 23.176,22.833 C24.6,23.6 24.754,25.139 25.1,26.487 C25.0221943,26.7240384 24.8096943,26.8911998 24.561,26.911 C23.944,26.14 24.137,24.911 23.29,24.211 C22.559,26.411 23.675,28.371 24.138,30.296 L23.868,32.337 C25.601,33.955 28.181,35.303 30.184,36.766 L31.57,37.036 L38.349,35.303 L38.2,34 C36.659,32.113 37.622,29.07 37.93,26.836 L37.31,24.484 C36.771,22.404 38.157,20.941 38.774,19.208 L38.543,16.242 L36.078,17.628 L33.922,17.551 C30.378,18.399 27.066,17.397 23.369,17.628 C22.791,17.204 22.752,16.434 22.329,15.895 L22.328,15.9 Z M31.229,21.711 C29.496,23.211 28.07,19.711 26.299,21.711 C25.6528654,21.8956173 24.9650632,21.6077871 24.643,21.018 C24.4111611,20.4273456 24.4536593,19.7642274 24.759,19.208 C26.184,17.937 28.187,18.745 29.959,18.745 C30.7125208,18.8380688 31.3278691,19.3915229 31.5,20.131 C31.6479676,20.6713614 31.5491082,21.2495059 31.23,21.71 L31.229,21.711 Z M30.382,19.784 C29.034,19.206 27.416,19.399 25.876,19.36 C25.5009004,19.6341003 25.3084168,20.0933663 25.376,20.553 C25.4793302,20.776205 25.7084215,20.913739 25.954,20.9 C26.7153557,20.3665383 27.6686656,20.1845395 28.573,20.4 C29.344,20.439 29.69,21.632 30.573,21.171 C30.8458646,20.7217675 30.7652151,20.1425952 30.38,19.785 L30.382,19.784 Z M38.545,21.864 C37.582,23.443 38.622,25.215 38.892,26.794 C38.275,28.334 38.429,30.183 38.199,31.917 C38.7852382,32.7584193 39.1309694,33.7437534 39.199,34.767 C40.046,32.567 39.237,29.991 39.892,27.757 C39.584,25.716 38.698,23.944 38.544,21.865 L38.545,21.864 Z" id="Shape" fill="#FFFFFF"></path>
        </g>
    </g>
</svg>