<?xml version="1.0" encoding="UTF-8" standalone="no"?>
<svg width="50px" height="50px" viewBox="0 0 50 50" version="1.1" xmlns="http://www.w3.org/2000/svg" xmlns:xlink="http://www.w3.org/1999/xlink">
    <!-- Generator: Sketch 39.1 (31720) - http://www.bohemiancoding.com/sketch -->
    <title>Slice 1</title>
    <desc>Created with Sketch.</desc>
    <defs></defs>
    <g id="Page-1" stroke="none" stroke-width="1" fill="none" fill-rule="evenodd">
        <g id="restavfall">
            <circle id="Oval" fill="#00421F" cx="25" cy="25" r="25"></circle>
            <path d="M40.71,30.367 L40.572,29.92 C40.445,29.502 40.312,29.071 40.172,28.639 C40.1476169,26.915005 39.5510234,25.2479904 38.476,23.9 C38.2753143,23.6301417 38.0989568,23.343017 37.949,23.042 C37.907,22.964 37.867,22.887 37.826,22.816 L37.594,22.416 L37.555,22.423 C37.399,22.232 37.201,22.023 37.007,21.81 C36.862,21.654 36.667,21.444 36.607,21.361 C36.2033309,20.0875109 35.4920223,18.933137 34.536,18 C32.215,15.649 27.784,14.815 26.958,14.678 C27.023,14.655 25.774,14.423 25.825,14.397 C26.33,14.141 26.459,14.005 27.406,13.54 C27.864,13.315 31.516,12.11 32.148,11.465 C32.78,10.82 32.848,10.608 31.993,10.135 C31.4416106,9.82491584 30.9074889,9.48508092 30.393,9.117 L29.193,7.389 C29.193,7.389 27.553,8.537 26.993,8.912 C26.433,9.287 25.265,10.652 24.87,10.972 C24.0454108,11.9749302 23.2753009,13.0214384 22.563,14.107 C21.968,13.949 23.544,14.28 22.863,13.937 C20.154,12.581 16.354,11.08 15.079,11.015 C13.804,10.95 12.026,10.097 12.691,11.106 C15.456,15.296 18.056,14.355 19.839,15.238 C18.79,15.799 17.889,16.21 17.7,16.32 L16,17.192 L15.821,17.476 C15.1588102,18.6250678 14.2545681,19.6163219 13.171,20.381 C12.1483012,20.8507051 11.3699768,21.7284517 11.026,22.8 C10.9646667,22.938 10.7046667,23.3603333 10.246,24.067 L10.127,24.267 C9.60465982,25.0837271 9.16259868,25.9490953 8.807,26.851 C8.62281287,27.2581126 8.46123385,27.67508 8.323,28.1 L7.837,30.427 L8.177,30.919 C8.215,30.973 8.32,31.119 8.46,31.305 C9.798,33.124 13.276,37.417 16.688,37.99 C18.908353,38.3819517 21.0914974,38.9613581 23.214,39.722 L23.32,39.762 L28.05,39.192 L35.409,37.005 L35.509,36.961 C41.04,33.7 40.988,31.263 40.71,30.367 L40.71,30.367 Z M25.27,11.607 L25.741,11.027 C25.741,11.027 27.041,10.132 27.149,10.046 C27.257,9.96 28.584,8.864 28.584,8.864 C28.9792703,8.77956405 29.3807551,8.97782304 29.554,9.343 C29.6615559,9.63129676 29.8696683,9.87101673 30.14,10.018 C30.14,10.018 27.854,11.467 27.525,11.61 L24.466,14.45 C24.12,14.429 23.766,14.411 23.416,14.401 L25.27,11.607 Z M14.85,12.292 L16.994,12.636 C18.5400464,13.0649356 20.0399834,13.645416 21.472,14.369 C21.094,14.535 20.945,14.731 20.515,14.952 C16.2,13.9 14.851,12.293 14.851,12.293 L14.85,12.292 Z M34.776,36 L27.8,38.113 L23.462,38.644 C21.3810563,37.8922089 19.2400314,37.3184812 17.062,36.929 C14.073,36.419 10.881,32.398 9.643,30.685 C9.514,30.515 9.422,30.385 9.389,30.333 L9.27,30.157 L9.279,30.075 L9.279,30.075 L9.66,28.284 C9.673,28.24 9.828,27.784 10.085,27.184 C10.4097089,26.3440804 10.8138764,25.5370849 11.292,24.774 L11.416,24.567 C11.7120217,24.1262595 11.9847294,23.6703002 12.233,23.201 C12.4784409,22.3664382 13.0624052,21.6729353 13.843,21.289 C14.943,20.816 16.369,18.805 16.823,18.07 L16.882,17.976 L16.975,17.92 C18.3991914,16.9781813 19.9202082,16.1916913 21.512,15.574 C21.961437,15.4762512 22.4213606,15.4352646 22.881,15.452 C24.464,15.452 26.629,15.705 26.638,15.706 C26.83,15.735 31.374,16.449 33.601,18.742 C34.4498245,19.580596 35.0742836,20.6190688 35.417,21.762 C35.5597955,22.0339522 35.7501323,22.2781388 35.979,22.483 C36.1795855,22.5821887 36.3863461,22.6683668 36.598,22.741 L36.763,23.511 C36.9341259,23.8584039 37.1366343,24.1894465 37.368,24.5 C38.2983182,25.6971747 38.8057582,27.1688563 38.811,28.685 L38.835,28.82 C38.98,29.262 39.114,29.702 39.242,30.128 L39.376,30.57 C39.492,30.947 39.809,32.973 34.776,36 L34.776,36 Z" id="Shape" fill="#FFFFFF"></path>
        </g>
    </g>
</svg>